<?xml version="1.0" encoding="utf-8"?>
<!-- Generator: Adobe Illustrator 20.0.0, SVG Export Plug-In . SVG Version: 6.00 Build 0)  -->
<svg version="1.1" id="Layer_1" xmlns="http://www.w3.org/2000/svg" xmlns:xlink="http://www.w3.org/1999/xlink" x="0px" y="0px"
	 viewBox="0 0 300.5 55.8" style="enable-background:new 0 0 300.5 55.8;" xml:space="preserve">
<style type="text/css">
	.st0{fill:#231F20;}
	.st1{fill:#FFC904;}
</style>
<rect x="50.9" y="4.7" class="st0" width="0.9" height="51.1"/>
<g>
	<g>
		<path class="st0" d="M0,47.4V41h2.4v6.3c0,1.8,0.9,2.7,2.4,2.7c1.5,0,2.4-0.9,2.4-2.7V41h2.4v6.3c0,3.4-1.9,5-4.9,5
			C1.8,52.3,0,50.6,0,47.4z"/>
		<path class="st0" d="M12.2,46.6L12.2,46.6c0-3.2,2.4-5.8,5.8-5.8c2.1,0,3.3,0.7,4.4,1.7l-1.6,1.8c-0.9-0.8-1.7-1.3-2.8-1.3
			c-1.9,0-3.2,1.6-3.2,3.5v0c0,1.9,1.3,3.5,3.2,3.5c1.3,0,2-0.5,2.9-1.3l1.6,1.6c-1.1,1.2-2.4,2-4.6,2
			C14.6,52.3,12.2,49.8,12.2,46.6z"/>
		<path class="st0" d="M24.8,41h8.5v2.2h-6v2.4h5.3v2.2h-5.3v4.3h-2.4V41z"/>
	</g>
	<g>
		<path class="st1" d="M22.9,29c0-0.9-0.2-1.8-0.6-2.7c-0.8-1.6-3.3-2.8-5.8-3.9c-1.2-0.5-2.4-1.1-3.3-1.7c-4.6-2.8-6.1-6.1-6.5-8.5
			c-0.1-0.6-0.2-1.3-0.2-1.9c0-2,0.6-3.9,1.7-5.4c4.3-5.8,11.6-5.1,13.7-4.8c-2.1,0.1-7.3,1-9.8,6c-0.5,1-0.7,2-0.7,3
			c0,4,4.1,7.5,7.4,10.3c1.1,1,2.2,1.9,3,2.7c1.5,1.5,2.2,3.2,2.2,4.8c0,2-1,3.5-1.6,4.3C22.8,30.6,22.9,29.8,22.9,29"/>
		<path class="st1" d="M2.8,26.6c1,0.8,3.1,2.2,7,3.3c2,0.6,3.9,0.6,5.3,0.6c1.3,0,2.4,0.1,3.1,0.4c0.5,0.3,0.9,0.8,0.9,1.3l0,0.3
			c-0.2,0.7-1.2,1.6-3.5,1.6C8.7,34.3,4.4,29.1,2.8,26.6"/>
		<path class="st1" d="M15.1,14.8c0,0,2.8-4.8,5.8-5.5c3.6-0.9,5.5,0.6,5.5,0.6l1-1.9l1.5,7.4c0,0,0.3,0.7-1,1.5
			c-1.2,0.8-1.3,0.7-1.3,0.7s-0.8-3-2.4-3.4c-1.6-0.3-1.6,1.8-1.5,2.5c0.1,0.7,1.4,3.4,3.7,2.3C28.8,17.7,30,16,30,16
			s0.4-0.8,0.7-0.6c0.4,0.3,1.7,1.7,1.7,1.7L31.9,26c0,0,0,1.1-1.5,1.5c-1.5,0.4-1.5,0.3-1.5,0.3l0.8-2.7h1l-0.3-6.3
			c0,0-0.8,4.1-2.4,6.8c-1.9,3.2-4.9,5.8-4.9,5.8s1.9-2.3,1.6-5.1c-0.2-1.8-1-4-5-7.2C17.4,17.4,15.1,14.8,15.1,14.8"/>
		<path class="st1" d="M19.7,32.1c0-0.3-0.1-0.5-0.2-0.8c-0.4-0.9-1.7-1.3-3.6-1.4c-3.5-0.1-12.1-1-14.4-6.6
			c-0.8-1.8-1.2-3.8-1.2-5.9c0-2.4,0.5-4.3,0.8-5.4c0,0.3-0.1,0.8-0.1,0.8c0,2.2,0.5,6.4,4.1,9.4c2.3,1.9,5.7,3.4,10.1,4.4
			c3,0.7,4.7,1.8,5.1,3.2l0.1,0.6c0,0.7-0.3,1.4-0.9,2.2C19.7,32.4,19.7,32.1,19.7,32.1"/>
		<path class="st1" d="M21.3,30.5c0-0.4-0.1-0.8-0.3-1.3c-0.6-1.5-2.5-2.6-5.4-3.3c-7.7-1.7-12-4.7-13.3-9.4
			c-0.3-1.1-0.5-2.2-0.5-3.2C1.9,7,7.5,3.6,9.4,2.7c-1,1-3.2,3.3-3.6,6.3C5.7,9.5,5.7,10,5.7,10.5c0,3.8,1.9,7.1,5.9,10.1
			c1.3,0.9,2.9,1.7,4.6,2.5c2.3,1.1,4.6,2.1,5.4,3.5c0.4,0.7,0.6,1.4,0.6,2.1c0,1.4-0.7,2.5-1.2,3.1C21.2,31.4,21.3,31,21.3,30.5"/>
		<path class="st1" d="M21.1,4.4c-1.2,0-2.4-1.2-2.4-2.4c0,1.2-1.2,2.4-2.4,2.4c1.2,0,2.4,1.2,2.4,2.4C18.7,5.6,19.8,4.4,21.1,4.4"
			/>
	</g>
</g>
<g>
	<path class="st0" d="M70.7,15L70.7,15c0-5.3,4-9.7,9.7-9.7c3.5,0,5.6,1.2,7.3,2.9l-2.6,3c-1.4-1.3-2.9-2.1-4.8-2.1
		c-3.1,0-5.4,2.6-5.4,5.8V15c0,3.2,2.2,5.9,5.4,5.9c2.1,0,3.4-0.9,4.9-2.2l2.6,2.6c-1.9,2-4,3.3-7.6,3.3
		C74.8,24.6,70.7,20.4,70.7,15z"/>
	<path class="st0" d="M89.8,17.2L89.8,17.2c0-4.1,3.3-7.5,7.7-7.5c4.4,0,7.7,3.3,7.7,7.4v0.1c0,4.1-3.3,7.4-7.7,7.4
		C93.1,24.6,89.8,21.3,89.8,17.2z M101.2,17.2L101.2,17.2c0-2.2-1.5-4-3.8-4c-2.3,0-3.7,1.8-3.7,3.9v0.1c0,2.1,1.5,3.9,3.8,3.9
		C99.8,21.1,101.2,19.3,101.2,17.2z"/>
	<path class="st0" d="M108.3,4.8h4v19.4h-4V4.8z"/>
	<path class="st0" d="M116.4,4.8h4v19.4h-4V4.8z"/>
	<path class="st0" d="M123.5,17.2L123.5,17.2c0-4.1,2.9-7.5,7-7.5c4.8,0,6.9,3.7,6.9,7.7c0,0.3,0,0.7-0.1,1.1h-9.9
		c0.4,1.8,1.7,2.8,3.5,2.8c1.4,0,2.3-0.4,3.5-1.5l2.3,2c-1.3,1.6-3.2,2.7-5.8,2.7C126.7,24.6,123.5,21.6,123.5,17.2z M133.6,16
		c-0.2-1.8-1.3-3-3-3c-1.7,0-2.8,1.2-3.1,3H133.6z"/>
	<path class="st0" d="M140.6,27.1l1.4-3c1.5,0.8,2.9,1.3,4.8,1.3c2.8,0,4.1-1.3,4.1-3.9v-0.7c-1.2,1.4-2.5,2.3-4.7,2.3
		c-3.3,0-6.3-2.4-6.3-6.6v-0.1c0-4.3,3.1-6.6,6.3-6.6c2.2,0,3.5,0.9,4.6,2.1V10h4v11c0,2.6-0.6,4.4-1.8,5.6
		c-1.3,1.3-3.4,1.9-6.1,1.9C144.6,28.6,142.4,28,140.6,27.1z M150.9,16.4L150.9,16.4c0-2-1.5-3.4-3.5-3.4s-3.5,1.4-3.5,3.3v0.1
		c0,2,1.5,3.3,3.5,3.3S150.9,18.4,150.9,16.4z"/>
	<path class="st0" d="M157.8,17.2L157.8,17.2c0-4.1,2.9-7.5,7-7.5c4.8,0,6.9,3.7,6.9,7.7c0,0.3,0,0.7-0.1,1.1h-9.9
		c0.4,1.8,1.7,2.8,3.5,2.8c1.4,0,2.3-0.4,3.5-1.5l2.3,2c-1.3,1.6-3.2,2.7-5.8,2.7C160.9,24.6,157.8,21.6,157.8,17.2z M167.8,16
		c-0.2-1.8-1.3-3-3-3c-1.7,0-2.8,1.2-3.1,3H167.8z"/>
	<path class="st0" d="M182.1,17.2L182.1,17.2c0-4.1,3.3-7.5,7.7-7.5c4.4,0,7.7,3.3,7.7,7.4v0.1c0,4.1-3.3,7.4-7.7,7.4
		C185.3,24.6,182.1,21.3,182.1,17.2z M193.5,17.2L193.5,17.2c0-2.2-1.5-4-3.8-4c-2.3,0-3.7,1.8-3.7,3.9v0.1c0,2.1,1.5,3.9,3.8,3.9
		C192.1,21.1,193.5,19.3,193.5,17.2z"/>
	<path class="st0" d="M201.1,13.5h-1.7v-3.3h1.7V9.2c0-1.6,0.4-2.7,1.1-3.5c0.7-0.7,1.8-1.1,3.3-1.1c1.3,0,2.1,0.2,2.9,0.4v3.4
		c-0.6-0.2-1.1-0.3-1.8-0.3c-0.9,0-1.5,0.5-1.5,1.5v0.6h3.3v3.3h-3.2v10.8h-4V13.5z"/>
</g>
<g>
	<path class="st0" d="M70.7,42.8L70.7,42.8c0-5.3,4.1-9.7,9.8-9.7c3.4,0,5.4,0.9,7.3,2.6l-2.6,3.1c-1.4-1.2-2.7-1.9-4.9-1.9
		c-3,0-5.3,2.6-5.3,5.8v0.1c0,3.4,2.3,5.9,5.6,5.9c1.5,0,2.8-0.4,3.9-1.1v-2.7h-4.1v-3.5h8.1v8.1c-1.9,1.6-4.5,3-8,3
		C74.7,52.4,70.7,48.3,70.7,42.8z"/>
	<path class="st0" d="M92,37.8h4v2.9c0.8-2,2.2-3.2,4.5-3.1v4.2h-0.2c-2.7,0-4.3,1.6-4.3,5v5.3h-4V37.8z"/>
	<path class="st0" d="M101.6,48L101.6,48c0-3.2,2.4-4.6,5.7-4.6c1.4,0,2.5,0.2,3.5,0.6v-0.2c0-1.7-1-2.6-3.1-2.6
		c-1.5,0-2.6,0.3-3.9,0.8l-1-3.1c1.6-0.7,3.1-1.1,5.5-1.1c2.2,0,3.8,0.6,4.8,1.6c1.1,1.1,1.5,2.6,1.5,4.5v8.3h-3.9v-1.5
		c-1,1.1-2.3,1.8-4.3,1.8C103.8,52.4,101.6,50.8,101.6,48z M110.8,47.1v-0.7c-0.7-0.3-1.6-0.5-2.6-0.5c-1.7,0-2.8,0.7-2.8,2v0.1
		c0,1.1,0.9,1.7,2.2,1.7C109.6,49.6,110.8,48.5,110.8,47.1z"/>
	<path class="st0" d="M117.5,45L117.5,45c0-4.8,3.1-7.4,6.5-7.4c2.2,0,3.5,1,4.4,2.1v-7h4v19.4h-4v-2c-1,1.3-2.3,2.3-4.4,2.3
		C120.7,52.4,117.5,49.8,117.5,45z M128.5,45L128.5,45c0-2.4-1.6-4-3.5-4c-1.9,0-3.5,1.5-3.5,3.9V45c0,2.4,1.6,3.9,3.5,3.9
		C126.9,48.9,128.5,47.4,128.5,45z"/>
	<path class="st0" d="M136,47.1v-9.2h4v8c0,1.9,0.9,2.9,2.4,2.9c1.5,0,2.5-1,2.5-2.9v-8h4v14.3h-4v-2c-0.9,1.2-2.1,2.3-4.2,2.3
		C137.8,52.4,136,50.3,136,47.1z"/>
	<path class="st0" d="M151.8,48L151.8,48c0-3.2,2.4-4.6,5.7-4.6c1.4,0,2.5,0.2,3.5,0.6v-0.2c0-1.7-1-2.6-3.1-2.6
		c-1.5,0-2.6,0.3-3.9,0.8l-1-3.1c1.6-0.7,3.1-1.1,5.5-1.1c2.2,0,3.8,0.6,4.8,1.6c1.1,1.1,1.5,2.6,1.5,4.5v8.3H161v-1.5
		c-1,1.1-2.3,1.8-4.3,1.8C154,52.4,151.8,50.8,151.8,48z M161.1,47.1v-0.7c-0.7-0.3-1.6-0.5-2.6-0.5c-1.7,0-2.8,0.7-2.8,2v0.1
		c0,1.1,0.9,1.7,2.2,1.7C159.8,49.6,161.1,48.5,161.1,47.1z"/>
	<path class="st0" d="M169,48v-6.8h-1.7v-3.5h1.7v-3.6h4v3.6h3.4v3.5H173v6.1c0,0.9,0.4,1.4,1.3,1.4c0.7,0,1.4-0.2,2-0.5v3.2
		c-0.9,0.5-1.8,0.8-3.2,0.8C170.6,52.3,169,51.3,169,48z"/>
	<path class="st0" d="M178.3,45L178.3,45c0-4.1,2.9-7.5,7-7.5c4.8,0,6.9,3.7,6.9,7.7c0,0.3,0,0.7-0.1,1.1h-9.9
		c0.4,1.8,1.7,2.8,3.5,2.8c1.4,0,2.3-0.4,3.5-1.5l2.3,2c-1.3,1.6-3.2,2.7-5.8,2.7C181.4,52.4,178.3,49.4,178.3,45z M188.3,43.8
		c-0.2-1.8-1.3-3-3-3c-1.7,0-2.8,1.2-3.1,3H188.3z"/>
	<path class="st0" d="M202.4,49.4l2.4-2.9c1.7,1.4,3.4,2.3,5.6,2.3c1.7,0,2.7-0.7,2.7-1.8v-0.1c0-1-0.6-1.6-3.8-2.4
		c-3.8-1-6.2-2-6.2-5.7v-0.1c0-3.4,2.7-5.6,6.5-5.6c2.7,0,5,0.9,6.9,2.4l-2.1,3.1c-1.6-1.1-3.3-1.8-4.8-1.8s-2.4,0.7-2.4,1.6v0.1
		c0,1.2,0.8,1.6,4,2.4c3.8,1,5.9,2.3,5.9,5.6v0.1c0,3.7-2.8,5.8-6.8,5.8C207.5,52.4,204.6,51.4,202.4,49.4z"/>
	<path class="st0" d="M220.8,48v-6.8h-1.7v-3.5h1.7v-3.6h4v3.6h3.4v3.5h-3.4v6.1c0,0.9,0.4,1.4,1.3,1.4c0.7,0,1.4-0.2,2-0.5v3.2
		c-0.9,0.5-1.8,0.8-3.2,0.8C222.5,52.3,220.8,51.3,220.8,48z"/>
	<path class="st0" d="M231.1,47.1v-9.2h4v8c0,1.9,0.9,2.9,2.4,2.9c1.5,0,2.5-1,2.5-2.9v-8h4v14.3h-4v-2c-0.9,1.2-2.1,2.3-4.2,2.3
		C232.8,52.4,231.1,50.3,231.1,47.1z"/>
	<path class="st0" d="M247.1,45L247.1,45c0-4.8,3.1-7.4,6.5-7.4c2.2,0,3.5,1,4.4,2.1v-7h4v19.4h-4v-2c-1,1.3-2.3,2.3-4.4,2.3
		C250.3,52.4,247.1,49.8,247.1,45z M258.1,45L258.1,45c0-2.4-1.6-4-3.5-4c-1.9,0-3.5,1.5-3.5,3.9V45c0,2.4,1.6,3.9,3.5,3.9
		C256.5,48.9,258.1,47.4,258.1,45z"/>
	<path class="st0" d="M265.8,32.7h4.3v3.6h-4.3V32.7z M265.9,37.8h4v14.3h-4V37.8z"/>
	<path class="st0" d="M273,45L273,45c0-4.1,2.9-7.5,7-7.5c4.8,0,6.9,3.7,6.9,7.7c0,0.3,0,0.7-0.1,1.1H277c0.4,1.8,1.7,2.8,3.5,2.8
		c1.4,0,2.3-0.4,3.5-1.5l2.3,2c-1.3,1.6-3.2,2.7-5.8,2.7C276.2,52.4,273,49.4,273,45z M283.1,43.8c-0.2-1.8-1.3-3-3-3
		c-1.7,0-2.8,1.2-3.1,3H283.1z"/>
	<path class="st0" d="M288.9,50.2l1.7-2.7c1.5,1.1,3.2,1.7,4.5,1.7c1.2,0,1.7-0.4,1.7-1.1v-0.1c0-0.9-1.4-1.2-3-1.6
		c-2-0.6-4.3-1.5-4.3-4.3v-0.1c0-2.9,2.3-4.5,5.2-4.5c1.8,0,3.8,0.6,5.3,1.6l-1.5,2.8c-1.4-0.8-2.8-1.3-3.9-1.3c-1,0-1.5,0.4-1.5,1
		v0.1c0,0.8,1.4,1.2,2.9,1.7c2,0.7,4.3,1.6,4.3,4.2v0.1c0,3.2-2.4,4.6-5.5,4.6C293,52.4,290.8,51.7,288.9,50.2z"/>
</g>
</svg>
